<?xml version="1.0" encoding="utf-8"?>
<!-- Generator: Adobe Illustrator 28.1.0, SVG Export Plug-In . SVG Version: 6.00 Build 0)  -->
<svg version="1.1" xmlns="http://www.w3.org/2000/svg" xmlns:xlink="http://www.w3.org/1999/xlink" x="0px" y="0px"
	 viewBox="0 0 312.49 305" style="enable-background:new 0 0 312.49 305;" xml:space="preserve">
<style type="text/css">
	.st0{fill:none;stroke:#000000;stroke-miterlimit:10;}
</style>
<g id="图层_1">
</g>
<g id="图层_2">
	<path class="st0" d="M308.07,110.81c-10.96-33.75-42.32-55.15-76-55.04C221.77,23.71,191.73,0.5,156.24,0.5
		c-35.48,0-65.53,23.21-75.83,55.27c-33.67-0.12-65.03,21.29-76,55.04c-10.96,33.75,1.82,69.5,29.13,89.2
		c-10.52,31.99,0.15,68.43,28.86,89.29c28.71,20.86,66.66,19.74,93.83-0.15c27.17,19.89,65.13,21,93.83,0.15
		c28.71-20.86,39.37-57.3,28.86-89.29C306.24,180.31,319.03,144.55,308.07,110.81z"/>
</g>
</svg>
